<svg width="48" height="45" viewBox="0 0 48 45" fill="none" xmlns="http://www.w3.org/2000/svg">
<g clip-path="url(#clip0)" filter="url(#filter0_d)">
<path d="M43.8879 20.3382C43.9243 20.0814 43.9607 19.8246 44 19.5684V17.3427C43.9695 17.1339 43.9414 16.9247 43.9133 16.7155C43.8479 16.2289 43.7861 15.7693 43.6961 15.3123C42.681 10.1591 39.7629 6.03853 35.0231 3.065C32.2343 1.31555 29.0481 0.304286 25.5528 0.0592854C25.4106 0.0493226 25.2898 0.0216423 25.1996 0.000244141H22.7545C22.525 0.0289546 22.2952 0.0563414 22.0653 0.0836779C21.5499 0.145075 21.0169 0.208534 20.5032 0.286617C12.691 1.47417 6.10332 7.29842 4.48319 14.4501C4.35507 15.0156 4.27471 15.589 4.18969 16.1961C4.14914 16.4852 4.10721 16.7842 4.05987 17.0808C4.04394 17.1807 4.02271 17.2727 4.00403 17.3537C4.00265 17.3595 4.00138 17.3653 4 17.371V19.6202C4.00212 19.629 4.00414 19.6379 4.00626 19.6468C4.02919 19.7445 4.05764 19.8662 4.06932 20.0047C4.30061 22.7535 5.17771 25.3607 6.67589 27.7536C11.1613 34.9172 20.0271 38.4176 28.7372 36.4652C30.7023 36.0246 32.5752 35.3119 34.3038 34.3468C34.6133 34.174 34.7597 33.9033 34.7054 33.6042C34.6534 33.3184 34.4184 33.0987 34.0921 33.031C33.9011 32.9914 33.6997 33.0472 33.3231 33.2447C28.6051 35.7199 23.6307 36.2453 18.5389 34.8062C13.9226 33.5019 10.1017 30.6123 7.77993 26.6697C5.46081 22.7316 4.90258 18.1954 6.2082 13.8971C7.42444 9.89291 10.167 6.43979 13.9308 4.17374C17.6987 1.90523 22.2232 0.987902 26.6699 1.59162C31.2475 2.21271 35.0824 4.18287 38.0683 7.44733C41.4406 11.1344 42.8864 15.4667 42.3657 20.324C42.0816 22.975 41.084 25.5261 39.4007 27.9064C39.2501 28.1194 39.1929 28.3458 39.2395 28.5437C39.2794 28.7136 39.3948 28.8583 39.573 28.9624C39.9578 29.1871 40.3912 29.0713 40.677 28.6675C42.1502 26.5878 43.1355 24.3698 43.6058 22.0753C43.722 21.508 43.8026 20.9398 43.8879 20.3382Z" fill="#B777BE"/>
<path d="M27.8768 15.1898C27.5805 14.9159 27.0983 14.9134 26.8008 15.1847C26.6572 15.3155 26.5774 15.4909 26.5762 15.6786C26.5749 15.8666 26.6526 16.0434 26.7949 16.1764C26.9368 16.306 27.1276 16.3826 27.3319 16.3836C27.5361 16.3847 27.727 16.3132 27.8696 16.1826C28.0147 16.0497 28.0949 15.8725 28.0956 15.6836C28.0964 15.497 28.0192 15.3222 27.8782 15.1911C27.8777 15.1906 27.8772 15.1902 27.8768 15.1898Z" fill="#B777BE"/>
<path d="M24.776 18.0572C24.4797 17.7833 23.9975 17.7809 23.6999 18.0521C23.5563 18.1829 23.4766 18.3583 23.4754 18.546C23.4741 18.734 23.5517 18.9109 23.694 19.0438C23.836 19.1734 24.0268 19.2501 24.2311 19.251C24.4352 19.2521 24.6261 19.1807 24.7688 19.05C24.9138 18.9171 24.9941 18.7399 24.9948 18.551C24.9955 18.3645 24.9183 18.1896 24.7774 18.0586C24.7769 18.0581 24.7764 18.0577 24.776 18.0572Z" fill="#B777BE"/>
<path d="M30.9776 12.3226C30.6814 12.0486 30.1991 12.0462 29.9016 12.3174C29.758 12.4483 29.6782 12.6237 29.677 12.8113C29.6757 12.9994 29.7534 13.1762 29.8957 13.3092C30.0377 13.4387 30.2284 13.5154 30.4327 13.5163C30.6369 13.5175 30.8278 13.446 30.9704 13.3153C31.1155 13.1825 31.1957 13.0053 31.1964 12.8164C31.1972 12.6298 31.12 12.4549 30.979 12.3239C30.9785 12.3234 30.9781 12.323 30.9776 12.3226Z" fill="#B777BE"/>
<path d="M21.6751 20.9247C21.3789 20.6508 20.8966 20.6484 20.5991 20.9196C20.4555 21.0504 20.3757 21.2258 20.3745 21.4135C20.3733 21.6015 20.4509 21.7783 20.5932 21.9113C20.7352 22.0409 20.9259 22.1175 21.1303 22.1185C21.3344 22.1196 21.5253 22.0482 21.668 21.9175C21.813 21.7846 21.8933 21.6074 21.894 21.4185C21.8947 21.232 21.8175 21.0571 21.6766 20.9261C21.676 20.9256 21.6756 20.9252 21.6751 20.9247Z" fill="#B777BE"/>
<path d="M18.5743 23.792C18.2781 23.518 17.7958 23.5156 17.4983 23.7869C17.3547 23.9177 17.2749 24.0931 17.2737 24.2808C17.2724 24.4688 17.3501 24.6456 17.4924 24.7786C17.6344 24.9081 17.8251 24.9848 18.0294 24.9858C18.2336 24.9869 18.4245 24.9154 18.5671 24.7848C18.7122 24.6519 18.7924 24.4747 18.7931 24.2858C18.7939 24.0992 18.7167 23.9243 18.5757 23.7933C18.5752 23.7928 18.5748 23.7924 18.5743 23.792Z" fill="#B777BE"/>
<path d="M34.6889 15.6571C34.2987 15.6571 33.9823 15.3646 33.9823 15.0038V10.0898C33.9823 9.78501 33.7141 9.53701 33.3845 9.53701H28.0705C27.6803 9.53701 27.364 9.24451 27.364 8.88368C27.364 8.52286 27.6803 8.23035 28.0705 8.23035H33.3845C34.4933 8.23035 35.3954 9.06453 35.3954 10.0898V15.0038C35.3954 15.3646 35.0791 15.6571 34.6889 15.6571Z" fill="#B777BE"/>
<path d="M19.9374 29.2983L14.6233 29.2982C13.5145 29.2982 12.6124 28.4641 12.6124 27.4387L12.6123 22.5248C12.6123 22.164 12.9286 21.8715 13.3188 21.8715C13.709 21.8715 14.0253 22.164 14.0253 22.5248L14.0255 27.4387C14.0255 27.7435 14.2937 27.9916 14.6233 27.9916L19.9374 27.9917C20.3276 27.9917 20.6439 28.2842 20.6439 28.645C20.6439 29.0058 20.3276 29.2983 19.9374 29.2983Z" fill="#B777BE"/>
</g>
<defs>
<filter id="filter0_d" x="0" y="0.000244141" width="48" height="45" filterUnits="userSpaceOnUse" color-interpolation-filters="sRGB">
<feFlood flood-opacity="0" result="BackgroundImageFix"/>
<feColorMatrix in="SourceAlpha" type="matrix" values="0 0 0 0 0 0 0 0 0 0 0 0 0 0 0 0 0 0 127 0" result="hardAlpha"/>
<feOffset dy="4"/>
<feGaussianBlur stdDeviation="2"/>
<feComposite in2="hardAlpha" operator="out"/>
<feColorMatrix type="matrix" values="0 0 0 0 0 0 0 0 0 0 0 0 0 0 0 0 0 0 0.25 0"/>
<feBlend mode="normal" in2="BackgroundImageFix" result="effect1_dropShadow"/>
<feBlend mode="normal" in="SourceGraphic" in2="effect1_dropShadow" result="shape"/>
</filter>
<clipPath id="clip0">
<rect width="40" height="37" fill="white" transform="translate(4 0.000244141)"/>
</clipPath>
</defs>
</svg>
