<svg width="20" height="20" viewBox="0 0 20 20" fill="none" xmlns="http://www.w3.org/2000/svg">
<g clip-path="url(#clip0)">
<path d="M18.7227 1.65547L18.7318 1.6519L18.7396 1.64848L18.7399 1.64833L18.7403 1.64818L18.7404 1.64812L18.7405 1.64808L18.7407 1.64797L18.7477 1.64506C18.755 1.64203 18.767 1.63716 18.783 1.63098C18.8151 1.61857 18.8623 1.60127 18.9194 1.58317C19.0377 1.54563 19.1791 1.5108 19.3076 1.50112C19.3707 1.49636 19.4201 1.49856 19.4559 1.50452C19.4719 1.50719 19.4828 1.51021 19.4897 1.51257C19.493 1.52308 19.4967 1.54057 19.4986 1.56789L16.3614 17.403C16.3535 17.4179 16.3428 17.4371 16.3291 17.4588C16.2888 17.5228 16.2302 17.5979 16.154 17.6593C16.0807 17.7182 15.9938 17.7627 15.8853 17.7777C15.7857 17.7916 15.6387 17.7846 15.4323 17.7034L10.9842 14.2932L10.6526 14.039L10.3435 14.3202L7.91916 16.5264L8.35226 12.6758L8.58295 12.4685L9.50519 11.6396L12.3268 9.10311C14.3928 7.24568 16.5052 5.34608 16.6769 5.18951L16.6769 5.18955L16.6823 5.18446C16.8617 5.01593 17.0095 4.83689 17.0595 4.63251C17.0834 4.5346 17.0858 4.42577 17.0534 4.31853C17.0429 4.24263 17.0191 4.16068 16.9727 4.08042C16.8875 3.9333 16.7571 3.84538 16.628 3.80379C16.4144 3.73503 16.208 3.79239 16.1188 3.82016C16.0035 3.85608 15.8978 3.90605 15.8282 3.94181C15.7916 3.96059 15.7609 3.97755 15.7389 3.99014C15.7278 3.99648 15.7187 4.0018 15.7119 4.00581L15.7035 4.01084L15.7006 4.01257L15.6996 4.01322L15.6991 4.0135L15.6989 4.01362C15.6988 4.01368 15.6987 4.01373 15.96 4.44003L15.6987 4.01368L15.6921 4.01788L5.16322 10.7002L0.927085 9.2787L0.91859 9.27535C0.907701 9.27094 0.889783 9.26334 0.867077 9.25256C0.820612 9.2305 0.759769 9.1978 0.699707 9.15538C0.571288 9.06468 0.518734 8.98289 0.507142 8.92338C0.512382 8.90981 0.538034 8.86189 0.65256 8.78293C0.721787 8.7352 0.796906 8.69615 0.857576 8.66843C0.887067 8.65496 0.911167 8.64507 0.926786 8.63894L0.942972 8.63276L0.944771 8.63211L0.94486 8.63208L0.945242 8.63194L0.952994 8.62927L0.962667 8.62547L18.7227 1.65547ZM19.483 1.49906C19.4834 1.49858 19.4853 1.50069 19.4877 1.50684C19.4839 1.50263 19.4827 1.49955 19.483 1.49906ZM16.3771 17.371L16.3773 17.3706L16.3771 17.371Z" fill="#B777BE"/>
<path d="M18.7227 1.65547L18.7318 1.6519L18.7396 1.64848L18.7399 1.64833L18.7403 1.64818L18.7404 1.64812L18.7405 1.64808L18.7407 1.64797L18.7477 1.64506C18.755 1.64203 18.767 1.63716 18.783 1.63098C18.8151 1.61857 18.8623 1.60127 18.9194 1.58317C19.0377 1.54563 19.1791 1.5108 19.3076 1.50112C19.3707 1.49636 19.4201 1.49856 19.4559 1.50452C19.4719 1.50719 19.4828 1.51021 19.4897 1.51257C19.493 1.52308 19.4967 1.54057 19.4986 1.56789L16.3614 17.403C16.3535 17.4179 16.3428 17.4371 16.3291 17.4588C16.2888 17.5228 16.2302 17.5979 16.154 17.6593C16.0807 17.7182 15.9938 17.7627 15.8853 17.7777C15.7857 17.7916 15.6387 17.7846 15.4323 17.7034L10.9842 14.2932L10.6526 14.039L10.3435 14.3202L7.91916 16.5264L8.35226 12.6758L8.58295 12.4685L9.50519 11.6396L12.3268 9.10311C14.3928 7.24568 16.5052 5.34608 16.6769 5.18951L16.6769 5.18955L16.6823 5.18446C16.8617 5.01593 17.0095 4.83689 17.0595 4.63251C17.0834 4.5346 17.0858 4.42577 17.0534 4.31853C17.0429 4.24263 17.0191 4.16068 16.9727 4.08042C16.8875 3.9333 16.7571 3.84538 16.628 3.80379C16.4144 3.73503 16.208 3.79239 16.1188 3.82016C16.0035 3.85608 15.8978 3.90605 15.8282 3.94181C15.7916 3.96059 15.7609 3.97755 15.7389 3.99014C15.7278 3.99648 15.7187 4.0018 15.7119 4.00581L15.7035 4.01084L15.7006 4.01257L15.6996 4.01322L15.6991 4.0135L15.6989 4.01362C15.6988 4.01368 15.6987 4.01373 15.96 4.44003L15.6987 4.01368L15.6921 4.01788L5.16322 10.7002L0.927085 9.2787L0.91859 9.27535C0.907701 9.27094 0.889783 9.26334 0.867077 9.25256C0.820612 9.2305 0.759769 9.1978 0.699707 9.15538C0.571288 9.06468 0.518734 8.98289 0.507142 8.92338C0.512382 8.90981 0.538034 8.86189 0.65256 8.78293C0.721787 8.7352 0.796906 8.69615 0.857576 8.66843C0.887067 8.65496 0.911167 8.64507 0.926786 8.63894L0.942972 8.63276L0.944771 8.63211L0.94486 8.63208L0.945242 8.63194L0.952994 8.62927L0.962667 8.62547L18.7227 1.65547ZM19.483 1.49906C19.4834 1.49858 19.4853 1.50069 19.4877 1.50684C19.4839 1.50263 19.4827 1.49955 19.483 1.49906ZM16.3771 17.371L16.3773 17.3706L16.3771 17.371Z" stroke="black"/>
<path d="M18.7227 1.65547L18.7318 1.6519L18.7396 1.64848L18.7399 1.64833L18.7403 1.64818L18.7404 1.64812L18.7405 1.64808L18.7407 1.64797L18.7477 1.64506C18.755 1.64203 18.767 1.63716 18.783 1.63098C18.8151 1.61857 18.8623 1.60127 18.9194 1.58317C19.0377 1.54563 19.1791 1.5108 19.3076 1.50112C19.3707 1.49636 19.4201 1.49856 19.4559 1.50452C19.4719 1.50719 19.4828 1.51021 19.4897 1.51257C19.493 1.52308 19.4967 1.54057 19.4986 1.56789L16.3614 17.403C16.3535 17.4179 16.3428 17.4371 16.3291 17.4588C16.2888 17.5228 16.2302 17.5979 16.154 17.6593C16.0807 17.7182 15.9938 17.7627 15.8853 17.7777C15.7857 17.7916 15.6387 17.7846 15.4323 17.7034L10.9842 14.2932L10.6526 14.039L10.3435 14.3202L7.91916 16.5264L8.35226 12.6758L8.58295 12.4685L9.50519 11.6396L12.3268 9.10311C14.3928 7.24568 16.5052 5.34608 16.6769 5.18951L16.6769 5.18955L16.6823 5.18446C16.8617 5.01593 17.0095 4.83689 17.0595 4.63251C17.0834 4.5346 17.0858 4.42577 17.0534 4.31853C17.0429 4.24263 17.0191 4.16068 16.9727 4.08042C16.8875 3.9333 16.7571 3.84538 16.628 3.80379C16.4144 3.73503 16.208 3.79239 16.1188 3.82016C16.0035 3.85608 15.8978 3.90605 15.8282 3.94181C15.7916 3.96059 15.7609 3.97755 15.7389 3.99014C15.7278 3.99648 15.7187 4.0018 15.7119 4.00581L15.7035 4.01084L15.7006 4.01257L15.6996 4.01322L15.6991 4.0135L15.6989 4.01362C15.6988 4.01368 15.6987 4.01373 15.96 4.44003L15.6987 4.01368L15.6921 4.01788L5.16322 10.7002L0.927085 9.2787L0.91859 9.27535C0.907701 9.27094 0.889783 9.26334 0.867077 9.25256C0.820612 9.2305 0.759769 9.1978 0.699707 9.15538C0.571288 9.06468 0.518734 8.98289 0.507142 8.92338C0.512382 8.90981 0.538034 8.86189 0.65256 8.78293C0.721787 8.7352 0.796906 8.69615 0.857576 8.66843C0.887067 8.65496 0.911167 8.64507 0.926786 8.63894L0.942972 8.63276L0.944771 8.63211L0.94486 8.63208L0.945242 8.63194L0.952994 8.62927L0.962667 8.62547L18.7227 1.65547ZM19.483 1.49906C19.4834 1.49858 19.4853 1.50069 19.4877 1.50684C19.4839 1.50263 19.4827 1.49955 19.483 1.49906ZM16.3771 17.371L16.3773 17.3706L16.3771 17.371Z" stroke="black" stroke-opacity="0.2"/>
</g>
<defs>
<clipPath id="clip0">
<rect width="20" height="20" fill="white"/>
</clipPath>
</defs>
</svg>
